# xmcd CD database file
#
# Track frame offsets:
#	150
#	18332
#	41930
#	63012
#	80762
#	98387
#	111294
#	135352
#	146356
#	157675
#	169134
#	183768
#	200590
#	213129
#	225668
#
# Disc length: 3259 seconds
#
# Revision: 2
# Processed by: cddbd v1.4b41PL1 Copyright (c) Steve Scherf et al.
# Submitted via: Feurio! 1.50.2ß - http://www.feurio.com
#
DISCID=b70cb90f
DTITLE=The Robinsons - On Song Island
DYEAR=1900
DGENRE=
TTITLE0=E.Z. (Where are you now ?)
TTITLE1=Two dreams
TTITLE2=Drive into the light
TTITLE3=You've got your gun (I've got mine)
TTITLE4=Ready, steady, die !
TTITLE5=The painted smile
TTITLE6=Distant girl
TTITLE7=Everytime it rains
TTITLE8=Yellow hat
TTITLE9=(Acting) Out of your skin
TTITLE10=The passion tree
TTITLE11=Let the river run
TTITLE12=A different song
TTITLE13=Meet me at the point of view
TTITLE14='Shopping' she said
EXTD=
EXTT0=
EXTT1=
EXTT2=
EXTT3=
EXTT4=
EXTT5=
EXTT6=
EXTT7=
EXTT8=
EXTT9=
EXTT10=
EXTT11=
EXTT12=
EXTT13=
EXTT14=
PLAYORDER=
